<!-- Generated by IcoMoon.io -->
<svg version="1.1" xmlns="http://www.w3.org/2000/svg" width="32" height="32" viewBox="0 0 32 32">
<title>padlock-svgrepo-com</title>
<path d="M11.748 8.359c0-2.34 1.909-4.242 4.242-4.242s4.242 1.909 4.242 4.242v4.242h4.118v-4.242c0-4.627-3.765-8.359-8.359-8.359s-8.359 3.739-8.359 8.359v4.242h4.118v-4.242z"></path>
<path d="M25.448 13.98h-18.915c-1.248 0-2.261 1.020-2.261 2.261v13.497c0 1.248 1.020 2.261 2.261 2.261h18.935c1.248 0 2.261-1.020 2.261-2.261v-13.497c0.007-1.248-1.013-2.261-2.281-2.261zM17.846 27.020h-3.712l0.739-3.941c-0.634-0.379-1.091-1.091-1.091-1.882 0-1.222 0.993-2.209 2.209-2.209s2.209 0.993 2.209 2.209c0 0.81-0.431 1.497-1.091 1.882l0.739 3.941z"></path>
</svg>
