<!-- Generated by IcoMoon.io -->
<svg version="1.1" xmlns="http://www.w3.org/2000/svg" width="32" height="32" viewBox="0 0 32 32">
<title>profile-avatar-svgrepo-com</title>
<path d="M24.809 8.616c0 4.759-3.858 8.616-8.616 8.616s-8.616-3.858-8.616-8.616c0-4.759 3.858-8.616 8.616-8.616s8.616 3.858 8.616 8.616z"></path>
<path d="M14.811 20.083c0.788 0.379 2.068 0.379 2.857 0l7.858-3.779c0.789-0.379 1.639-0.010 1.899 0.827l2.348 7.541c0.26 0.836 0.027 2.068-0.52 2.752l-0.133 0.167c-0.446 0.558-1.296 1.029-2.070 2.906-0.334 0.81-1.216 1.502-2.091 1.502h-17.57c-0.876 0-1.757-0.692-2.095-1.499-0.783-1.869-1.66-2.318-2.14-2.847l-0.382-0.423c-0.588-0.649-0.82-1.842-0.519-2.664l2.728-7.459c0.301-0.822 1.184-1.181 1.973-0.802l7.857 3.778z"></path>
</svg>
